<svg width="132" height="110" viewBox="0 0 132 110" fill="none" xmlns="http://www.w3.org/2000/svg">
<path d="M53.4 11.74C52.08 11.74 50.79 12.12 49.69 12.83L3.12 42.93C1.17 44.19 0 46.35 0 48.67V91.43C0 95.2 3.06 98.27 6.84 98.27H17.86L54.6 11.74H53.39H53.4Z" fill="#1D1D1E"/>
<path d="M130.56 50.28L110.84 4.15C109.76 1.63 107.29 0 104.55 0H64.1C61.36 0 58.88 1.64 57.81 4.16L54.59 11.73H89.02C92.79 11.73 95.86 14.79 95.86 18.57V91.43C95.86 95.2 92.8 98.27 89.02 98.27H17.86L16.91 100.5C15 105.01 18.3 110.01 23.2 110.01H102.96C105.7 110.01 108.18 108.37 109.25 105.85L130.56 55.65C131.29 53.94 131.28 52 130.56 50.29V50.28Z" fill="#1D1D1E"/>
</svg>
