<svg width="1182" height="336" viewBox="0 0 1182 336" fill="none" xmlns="http://www.w3.org/2000/svg">
<path d="M206.77 332.93H182.72C181.62 332.93 180.72 332.03 180.72 330.93V186.43C180.72 185.33 181.62 184.43 182.72 184.43H283.77C284.87 184.43 285.77 185.33 285.77 186.43V206.63C285.77 207.73 284.87 208.63 283.77 208.63H210.77C209.67 208.63 208.77 209.53 208.77 210.63V244.03C208.77 245.13 209.67 246.03 210.77 246.03H278.09C279.19 246.03 280.09 246.93 280.09 248.03V268.23C280.09 269.33 279.19 270.23 278.09 270.23H210.77C209.67 270.23 208.77 271.13 208.77 272.23V330.93C208.77 332.03 207.87 332.93 206.77 332.93Z" fill="#30B746"/>
<path d="M307.65 210.84C303.37 210.84 299.73 209.34 296.74 206.35C293.74 203.36 292.25 199.72 292.25 195.44C292.25 191.16 293.75 187.53 296.74 184.53C299.73 181.54 303.37 180.04 307.65 180.04C311.93 180.04 315.56 181.54 318.56 184.53C321.55 187.53 323.05 191.16 323.05 195.44C323.05 199.72 321.55 203.36 318.56 206.35C315.56 209.35 311.93 210.84 307.65 210.84ZM294.08 330.93V224.93C294.08 223.83 294.98 222.93 296.08 222.93H319.4C320.5 222.93 321.4 223.83 321.4 224.93V330.93C321.4 332.03 320.5 332.93 319.4 332.93H296.08C294.98 332.93 294.08 332.03 294.08 330.93Z" fill="#30B746"/>
<path d="M344.38 330.93V252.25C344.38 251.15 343.48 250.25 342.38 250.25H332.81C331.71 250.25 330.81 249.35 330.81 248.25V224.93C330.81 223.83 331.71 222.93 332.81 222.93H356.86C357.96 222.93 358.86 223.83 358.86 224.93V238.53C358.86 239.63 359.76 240.53 360.86 240.53H365.51C366.17 240.53 366.77 240.2 367.15 239.66C371.21 233.84 376.33 229.31 382.51 226.04C388.99 222.62 396.93 220.91 406.34 220.91C421.37 220.91 433.02 225.07 441.27 233.38C449.52 241.69 453.65 252.75 453.65 266.56V330.93C453.65 332.03 452.75 332.93 451.65 332.93H428.33C427.23 332.93 426.33 332.03 426.33 330.93V271.7C426.33 263.02 424.04 256.42 419.45 251.9C414.87 247.38 408.05 245.12 399.01 245.12C389.97 245.12 383.46 247.38 378.75 251.9C374.04 256.42 371.69 263.02 371.69 271.7V330.93C371.69 332.03 370.79 332.93 369.69 332.93H346.37C345.27 332.93 344.37 332.03 344.37 330.93H344.38Z" fill="#30B746"/>
<path d="M504.57 334.95C491.74 334.95 481.68 331.83 474.41 325.6C467.14 319.37 463.5 311.12 463.5 300.85C463.5 290.58 467.2 281.78 474.59 275.92C481.98 270.05 492.65 267.12 506.58 267.12H538.13C539.23 267.12 540.13 266.22 540.13 265.12V262.72C540.13 249.28 532.31 242.55 516.66 242.55C504.07 242.55 496.2 246.89 493.06 255.57C492.78 256.35 492.02 256.85 491.2 256.85H467.8C466.51 256.85 465.55 255.64 465.85 254.38C468.33 243.85 473.69 235.72 481.92 229.99C490.78 223.82 502.36 220.73 516.66 220.73C532.79 220.73 545.08 224.37 553.51 231.64C561.94 238.91 566.16 249.52 566.16 263.45V303.62C566.16 304.72 567.06 305.62 568.16 305.62H577.18C578.28 305.62 579.18 306.52 579.18 307.62V330.94C579.18 332.04 578.28 332.94 577.18 332.94H553.13C552.03 332.94 551.13 332.04 551.13 330.94V317.34C551.13 316.24 550.23 315.34 549.13 315.34H544.53C543.84 315.34 543.22 315.7 542.84 316.27C539.12 322.05 534.21 326.57 528.12 329.82C521.7 333.24 513.85 334.95 504.56 334.95H504.57ZM508.61 313.87C514.6 313.87 519.98 312.74 524.74 310.48C529.51 308.22 533.26 305.16 536.01 301.31C538.76 297.46 540.13 293.15 540.13 288.39V287.82C540.13 286.72 539.23 285.82 538.13 285.82H508.05C495.7 285.82 489.53 290.4 489.53 299.57C489.53 304.09 491.21 307.61 494.57 310.11C497.93 312.62 502.61 313.87 508.6 313.87H508.61Z" fill="#30B746"/>
<path d="M593.05 330.93V252.25C593.05 251.15 592.15 250.25 591.05 250.25H581.48C580.38 250.25 579.48 249.35 579.48 248.25V224.93C579.48 223.83 580.38 222.93 581.48 222.93H605.53C606.63 222.93 607.53 223.83 607.53 224.93V238.53C607.53 239.63 608.43 240.53 609.53 240.53H614.18C614.84 240.53 615.44 240.2 615.82 239.66C619.88 233.84 625 229.31 631.18 226.04C637.66 222.62 645.6 220.91 655.01 220.91C670.04 220.91 681.68 225.07 689.93 233.38C698.18 241.69 702.31 252.75 702.31 266.56V330.93C702.31 332.03 701.41 332.93 700.31 332.93H676.99C675.89 332.93 674.99 332.03 674.99 330.93V271.7C674.99 263.02 672.7 256.42 668.11 251.9C663.53 247.38 656.71 245.12 647.67 245.12C638.63 245.12 632.12 247.38 627.41 251.9C622.7 256.42 620.35 263.02 620.35 271.7V330.93C620.35 332.03 619.45 332.93 618.35 332.93H595.03C593.93 332.93 593.03 332.03 593.03 330.93H593.05Z" fill="#30B746"/>
<path d="M768.96 335.13C757.59 335.13 747.63 332.78 739.08 328.07C730.52 323.37 723.86 316.74 719.1 308.18C714.33 299.63 711.95 289.54 711.95 277.93C711.95 266.32 714.3 256.24 719.01 247.68C723.71 239.13 730.34 232.5 738.9 227.79C747.45 223.09 757.48 220.73 768.97 220.73C783.15 220.73 794.88 224.31 804.17 231.46C812.85 238.14 818.54 247.25 821.24 258.78C821.54 260.04 820.58 261.25 819.29 261.25H795.86C795.02 261.25 794.28 260.71 793.98 259.93C792.11 255.08 789.22 251.37 785.29 248.79C781.01 245.98 775.57 244.57 768.97 244.57C759.92 244.57 752.71 247.47 747.34 253.28C741.96 259.09 739.27 267.31 739.27 277.94C739.27 288.57 741.96 296.79 747.34 302.6C752.72 308.41 759.93 311.31 768.97 311.31C782.6 311.31 791.15 305.66 794.61 294.36C794.86 293.53 795.64 292.98 796.51 292.98H820.07C821.35 292.98 822.29 294.16 822.03 295.42C819.45 307.58 813.8 317.12 805.08 324.06C795.79 331.46 783.75 335.15 768.96 335.15V335.13Z" fill="#30B746"/>
<path d="M882.42 335.13C870.56 335.13 860.3 332.78 851.62 328.07C842.94 323.37 836.25 316.7 831.54 308.09C826.83 299.47 824.48 289.3 824.48 277.57C824.48 265.84 826.8 255.72 831.45 247.23C836.09 238.74 842.69 232.2 851.25 227.61C859.8 223.03 869.83 220.73 881.32 220.73C892.81 220.73 902.22 222.9 910.29 227.24C918.36 231.58 924.59 237.81 928.99 245.94C933.39 254.07 935.59 263.69 935.59 274.82V282.35C935.59 283.45 934.69 284.35 933.59 284.35H853.17C851.94 284.35 851 285.45 851.19 286.67C852.43 294.84 855.54 301.18 860.52 305.71C865.96 310.66 873.2 313.13 882.24 313.13C888.96 313.13 894.43 311.88 898.65 309.37C902.52 307.07 905.33 303.73 907.09 299.32C907.39 298.57 908.14 298.09 908.95 298.09H932.48C933.8 298.09 934.76 299.36 934.41 300.63C931.58 311.03 925.89 319.26 917.34 325.31C908.11 331.85 896.47 335.12 882.42 335.12V335.13ZM854.04 265.84H906.98C908.25 265.84 909.2 264.67 908.95 263.43C907.61 257.03 904.82 252.06 900.57 248.52C895.8 244.55 889.39 242.56 881.32 242.56C873.25 242.56 866.84 244.58 861.7 248.61C857.17 252.17 853.98 257.06 852.11 263.28C851.73 264.56 852.7 265.85 854.04 265.85V265.84Z" fill="#30B746"/>
<path d="M960.34 210.84C956.06 210.84 952.42 209.34 949.43 206.35C946.43 203.36 944.94 199.72 944.94 195.44C944.94 191.16 946.44 187.53 949.43 184.53C952.42 181.53 956.06 180.04 960.34 180.04C964.62 180.04 968.25 181.54 971.25 184.53C974.24 187.53 975.74 191.16 975.74 195.44C975.74 199.72 974.24 203.36 971.25 206.35C968.25 209.35 964.62 210.84 960.34 210.84ZM946.77 330.93V224.93C946.77 223.83 947.67 222.93 948.77 222.93H972.09C973.19 222.93 974.09 223.83 974.09 224.93V330.93C974.09 332.03 973.19 332.93 972.09 332.93H948.77C947.67 332.93 946.77 332.03 946.77 330.93Z" fill="#30B746"/>
<path d="M997.93 330.93V252.25C997.93 251.15 997.03 250.25 995.93 250.25H986.36C985.26 250.25 984.36 249.35 984.36 248.25V224.93C984.36 223.83 985.26 222.93 986.36 222.93H1010.23C1011.33 222.93 1012.23 223.83 1012.23 224.93V242.2C1012.23 243.3 1013.13 244.2 1014.23 244.2H1018.63C1019.42 244.2 1020.13 243.72 1020.46 243C1023.52 236.26 1028.05 231.1 1034.06 227.52C1040.41 223.73 1047.69 221.84 1055.88 221.84H1063.05C1064.15 221.84 1065.05 222.74 1065.05 223.84V243.31C1065.05 244.41 1064.15 245.31 1063.05 245.31H1054.6C1044.7 245.31 1037.27 248.18 1032.33 253.93C1027.38 259.68 1024.9 267.31 1024.9 276.85V330.95C1024.9 332.05 1024 332.95 1022.9 332.95H999.95C998.85 332.95 997.95 332.05 997.95 330.95L997.93 330.93Z" fill="#30B746"/>
<path d="M1123.45 335.13C1111.72 335.13 1101.48 332.78 1092.74 328.07C1084 323.37 1077.22 316.7 1072.39 308.09C1067.56 299.47 1065.15 289.36 1065.15 277.75C1065.15 266.14 1067.56 256.06 1072.39 247.5C1077.22 238.95 1084.03 232.35 1092.83 227.7C1101.63 223.06 1111.9 220.73 1123.63 220.73C1135.36 220.73 1145.91 223.05 1154.52 227.7C1163.14 232.35 1169.83 238.95 1174.6 247.5C1179.37 256.06 1181.75 266.2 1181.75 277.93C1181.75 289.66 1179.37 299.66 1174.6 308.27C1169.83 316.89 1163.11 323.52 1154.43 328.16C1145.75 332.81 1135.42 335.13 1123.45 335.13ZM1123.63 311.3C1133.41 311.3 1140.98 308.34 1146.36 302.41C1151.74 296.48 1154.43 288.32 1154.43 277.93C1154.43 267.54 1151.74 259.23 1146.36 253.36C1140.98 247.49 1133.4 244.56 1123.63 244.56C1113.86 244.56 1106.06 247.49 1100.62 253.36C1095.18 259.23 1092.46 267.36 1092.46 277.74C1092.46 288.12 1095.18 296.47 1100.62 302.4C1106.06 308.33 1113.73 311.29 1123.63 311.29V311.3Z" fill="#30B746"/>
<path d="M393.18 37.4H386.01C377.82 37.4 370.55 39.3 364.19 43.08C358.18 46.66 353.65 51.82 350.59 58.56C350.26 59.28 349.56 59.76 348.76 59.76H344.36C343.26 59.76 342.36 58.86 342.36 57.76V40.49C342.36 39.39 341.46 38.49 340.36 38.49H316.49C315.39 38.49 314.49 39.39 314.49 40.49V63.81C314.49 64.91 315.39 65.81 316.49 65.81H326.06C327.16 65.81 328.06 66.71 328.06 67.81V146.49C328.06 147.59 328.96 148.49 330.06 148.49H353.01C354.11 148.49 355.01 147.59 355.01 146.49V92.39C355.01 82.86 357.48 75.22 362.43 69.47C367.38 63.73 374.81 60.85 384.7 60.85H393.15C394.25 60.85 395.15 59.95 395.15 58.85V39.38C395.15 38.28 394.25 37.38 393.15 37.38L393.18 37.4Z" fill="#30B746"/>
<path d="M481.33 42.8C473.26 38.46 463.61 36.29 452.36 36.29C441.11 36.29 430.85 38.58 422.29 43.17C413.73 47.75 407.13 54.29 402.49 62.79C397.84 71.29 395.52 81.4 395.52 93.13C395.52 104.86 397.87 115.04 402.58 123.65C407.28 132.27 413.98 138.93 422.65 143.63C431.33 148.34 441.59 150.69 453.45 150.69C467.5 150.69 479.15 147.42 488.37 140.88C496.91 134.83 502.6 126.6 505.44 116.2C505.79 114.92 504.83 113.66 503.51 113.66H479.98C479.17 113.66 478.42 114.13 478.11 114.89C476.35 119.29 473.54 122.64 469.67 124.94C465.45 127.45 459.98 128.7 453.26 128.7C444.21 128.7 436.97 126.22 431.53 121.27C426.55 116.74 423.44 110.39 422.2 102.23C422.02 101.02 422.95 99.91 424.18 99.91H504.6C505.7 99.91 506.6 99.01 506.6 97.91V90.38C506.6 79.26 504.4 69.63 500 61.5C495.6 53.37 489.37 47.14 481.3 42.8H481.33ZM478.03 81.4H425.09C423.76 81.4 422.78 80.11 423.16 78.83C425.02 72.61 428.22 67.72 432.75 64.16C437.88 60.13 444.42 58.11 452.37 58.11C460.32 58.11 466.85 60.1 471.62 64.07C475.87 67.61 478.66 72.58 479.99 78.98C480.25 80.22 479.29 81.39 478.02 81.39L478.03 81.4Z" fill="#30B746"/>
<path d="M578.57 83.6L553.82 78.83C549.3 77.98 546 76.69 543.92 74.98C541.84 73.27 540.8 71.01 540.8 68.2C540.8 64.41 542.45 61.54 545.75 59.58C549.05 57.63 553.82 56.65 560.05 56.65C567.02 56.65 572.36 57.9 576.09 60.41C579.5 62.7 581.91 66.24 583.32 71.03C583.57 71.86 584.35 72.42 585.22 72.42H607.86C609.07 72.42 610.01 71.34 609.85 70.14C608.47 59.75 603.81 51.62 595.89 45.74C587.39 39.45 575.93 36.3 561.51 36.3C547.09 36.3 535.78 39.39 527.59 45.56C519.4 51.73 515.31 60.02 515.31 70.4C515.31 86.53 526.06 96.68 547.58 100.83L571.78 105.41C576.79 106.39 580.37 107.79 582.5 109.63C584.64 111.46 585.71 114.03 585.71 117.33C585.71 125.52 578.68 129.61 564.63 129.61C556.32 129.61 549.96 128.23 545.56 125.49C541.57 123 539.03 119.27 537.96 114.31C537.76 113.4 536.95 112.75 536.02 112.75H513.28C512.08 112.75 511.16 113.8 511.29 114.99C512.48 125.9 517.36 134.47 525.95 140.71C535.12 147.37 547.64 150.7 563.53 150.7C579.42 150.7 590.72 147.58 598.91 141.35C607.1 135.12 611.19 126.44 611.19 115.32C611.19 106.64 608.56 99.74 603.31 94.6C598.05 89.47 589.8 85.8 578.56 83.6H578.57Z" fill="#30B746"/>
<path d="M660.68 127.05C659.58 127.05 658.68 126.15 658.68 125.05V61.77C658.68 60.67 659.58 59.77 660.68 59.77H682.9C684 59.77 684.9 58.87 684.9 57.77V40.5C684.9 39.4 684 38.5 682.9 38.5H660.32C659.22 38.5 658.32 37.6 658.32 36.5V7.5C658.32 6.4 657.42 5.5 656.32 5.5H633.55C632.45 5.5 631.55 6.4 631.55 7.5V36.5C631.55 37.6 630.65 38.5 629.55 38.5H613.93C612.83 38.5 611.93 39.4 611.93 40.5V57.77C611.93 58.87 612.83 59.77 613.93 59.77H629.36C630.46 59.77 631.36 60.67 631.36 61.77V126.32C631.36 133.78 633.35 139.34 637.32 143C641.29 146.67 646.88 148.5 654.1 148.5H685.47C686.57 148.5 687.47 147.6 687.47 146.5V129.05C687.47 127.95 686.57 127.05 685.47 127.05H660.68Z" fill="#30B746"/>
<path d="M804.22 121.18H793.79C793.4 121.18 793.03 121.29 792.7 121.5L779.08 130.31C778.51 130.68 778.17 131.31 778.17 131.99V144.5C778.17 145.6 779.07 146.5 780.17 146.5H804.22C805.32 146.5 806.22 145.6 806.22 144.5V123.18C806.22 122.08 805.32 121.18 804.22 121.18Z" fill="#30B746"/>
<path d="M793.2 88.22V79.01C793.2 65.08 788.98 54.47 780.55 47.2C772.12 39.93 759.83 36.29 743.7 36.29C729.4 36.29 717.82 39.38 708.96 45.55C700.73 51.28 695.37 59.41 692.89 69.94C692.59 71.2 693.55 72.41 694.84 72.41H718.24C719.07 72.41 719.82 71.91 720.1 71.13C723.24 62.45 731.1 58.11 743.7 58.11C759.34 58.11 767.17 64.83 767.17 78.28V80.68C767.17 81.78 766.27 82.68 765.17 82.68H733.62C719.69 82.68 709.02 85.61 701.63 91.48C694.23 97.35 690.54 105.66 690.54 116.41C690.54 127.16 694.18 134.93 701.45 141.16C708.72 147.39 718.77 150.51 731.61 150.51C740.9 150.51 748.75 148.8 755.17 145.38C761.59 141.96 766.69 137.13 770.48 130.9L792.97 89.18C793.13 88.89 793.21 88.56 793.21 88.23L793.2 88.22ZM767.17 103.95C767.17 108.72 765.79 113.02 763.05 116.87C760.3 120.72 756.54 123.78 751.77 126.04C747 128.3 741.62 129.43 735.64 129.43C729.66 129.43 724.97 128.18 721.61 125.67C718.25 123.17 716.57 119.65 716.57 115.13C716.57 105.96 722.74 101.38 735.09 101.38H765.17C766.27 101.38 767.17 102.28 767.17 103.38V103.95Z" fill="#30B746"/>
<path d="M192.05 117.53C191.74 116.79 191.01 116.32 190.21 116.32H178.38C177.58 116.32 176.85 116.8 176.54 117.54L164.57 145.72C164.01 147.04 164.98 148.5 166.41 148.5H189.75C190.55 148.5 191.28 148.02 191.59 147.28L197.83 132.59C198.04 132.09 198.04 131.52 197.83 131.02L192.06 117.52L192.05 117.53Z" fill="#30B746"/>
<path d="M256.12 1.21997C255.81 0.479971 255.08 0 254.28 0H227.78C226.98 0 226.25 0.479971 225.94 1.21997L181.08 106.85C180.52 108.17 181.49 109.63 182.92 109.63H272.06C272.87 109.63 273.59 110.11 273.9 110.86L289.19 147.27C289.5 148.01 290.23 148.5 291.03 148.5H315.29C316.72 148.5 317.69 147.04 317.13 145.72L256.12 1.21997ZM262.5 86.16H219.38C217.95 86.16 216.98 84.7 217.54 83.38L240.57 28.59H241.49L264.35 83.39C264.9 84.71 263.93 86.16 262.5 86.16Z" fill="#30B746"/>
<path d="M53.39 50.23C52.07 50.23 50.78 50.61 49.68 51.32L3.12 81.42C1.17 82.68 0 84.84 0 87.16V129.92C0 133.69 3.06 136.76 6.84 136.76H17.86L54.61 50.23H53.39Z" fill="#30B746"/>
<path d="M130.55 88.77L110.83 42.64C109.75 40.12 107.28 38.49 104.54 38.49H64.09C61.35 38.49 58.87 40.13 57.8 42.65L54.58 50.22H89.01C92.78 50.22 95.85 53.28 95.85 57.06V129.92C95.85 133.69 92.79 136.76 89.01 136.76H17.85L16.9 138.99C14.99 143.5 18.29 148.5 23.19 148.5H102.95C105.69 148.5 108.17 146.86 109.24 144.34L130.55 94.14C131.28 92.43 131.27 90.49 130.55 88.78V88.77Z" fill="#30B746"/>
</svg>
