<svg width="1182" height="156" viewBox="0 0 1182 156" fill="none" xmlns="http://www.w3.org/2000/svg">
<path d="M206.78 152.89H182.73C181.63 152.89 180.73 151.99 180.73 150.89V6.39001C180.73 5.29001 181.63 4.39001 182.73 4.39001H283.78C284.88 4.39001 285.78 5.29001 285.78 6.39001V26.59C285.78 27.69 284.88 28.59 283.78 28.59H210.78C209.68 28.59 208.78 29.49 208.78 30.59V63.99C208.78 65.09 209.68 65.99 210.78 65.99H278.1C279.2 65.99 280.1 66.89 280.1 67.99V88.1899C280.1 89.2899 279.2 90.1899 278.1 90.1899H210.78C209.68 90.1899 208.78 91.0899 208.78 92.1899V150.89C208.78 151.99 207.88 152.89 206.78 152.89Z" fill="#30B746"/>
<path d="M307.66 30.7999C303.38 30.7999 299.74 29.2999 296.75 26.3099C293.75 23.3199 292.26 19.6799 292.26 15.3999C292.26 11.1199 293.76 7.48999 296.75 4.48999C299.74 1.49999 303.38 0 307.66 0C311.94 0 315.57 1.49999 318.57 4.48999C321.56 7.48999 323.06 11.1199 323.06 15.3999C323.06 19.6799 321.56 23.3199 318.57 26.3099C315.57 29.3099 311.94 30.7999 307.66 30.7999ZM294.09 150.89V44.89C294.09 43.79 294.99 42.89 296.09 42.89H319.41C320.51 42.89 321.41 43.79 321.41 44.89V150.89C321.41 151.99 320.51 152.89 319.41 152.89H296.09C294.99 152.89 294.09 151.99 294.09 150.89Z" fill="#30B746"/>
<path d="M344.38 150.89V72.21C344.38 71.11 343.48 70.21 342.38 70.21H332.81C331.71 70.21 330.81 69.31 330.81 68.21V44.89C330.81 43.79 331.71 42.89 332.81 42.89H356.86C357.96 42.89 358.86 43.79 358.86 44.89V58.49C358.86 59.59 359.76 60.49 360.86 60.49H365.51C366.17 60.49 366.77 60.16 367.15 59.62C371.21 53.8 376.33 49.27 382.51 46C388.99 42.58 396.93 40.87 406.34 40.87C421.37 40.87 433.02 45.03 441.27 53.34C449.52 61.65 453.65 72.71 453.65 86.52V150.89C453.65 151.99 452.75 152.89 451.65 152.89H428.33C427.23 152.89 426.33 151.99 426.33 150.89V91.6599C426.33 82.9799 424.04 76.38 419.45 71.86C414.87 67.34 408.05 65.08 399.01 65.08C389.97 65.08 383.46 67.34 378.75 71.86C374.04 76.38 371.69 82.9799 371.69 91.6599V150.89C371.69 151.99 370.79 152.89 369.69 152.89H346.37C345.27 152.89 344.37 151.99 344.37 150.89H344.38Z" fill="#30B746"/>
<path d="M504.58 154.91C491.75 154.91 481.69 151.79 474.42 145.56C467.15 139.33 463.51 131.08 463.51 120.81C463.51 110.54 467.21 101.74 474.6 95.88C481.99 90.01 492.66 87.08 506.59 87.08H538.14C539.24 87.08 540.14 86.18 540.14 85.08V82.6799C540.14 69.2399 532.32 62.51 516.67 62.51C504.08 62.51 496.21 66.8499 493.07 75.5299C492.79 76.3099 492.03 76.8099 491.21 76.8099H467.81C466.52 76.8099 465.56 75.6 465.86 74.34C468.34 63.81 473.7 55.68 481.93 49.95C490.79 43.78 502.37 40.6899 516.67 40.6899C532.8 40.6899 545.09 44.33 553.52 51.6C561.95 58.87 566.17 69.4799 566.17 83.4099V123.58C566.17 124.68 567.07 125.58 568.17 125.58H577.19C578.29 125.58 579.19 126.48 579.19 127.58V150.9C579.19 152 578.29 152.9 577.19 152.9H553.14C552.04 152.9 551.14 152 551.14 150.9V137.3C551.14 136.2 550.24 135.3 549.14 135.3H544.54C543.85 135.3 543.23 135.66 542.85 136.23C539.13 142.01 534.22 146.53 528.13 149.78C521.71 153.2 513.86 154.91 504.57 154.91H504.58ZM508.61 133.83C514.6 133.83 519.98 132.7 524.74 130.44C529.51 128.18 533.26 125.12 536.01 121.27C538.76 117.42 540.13 113.11 540.13 108.35V107.78C540.13 106.68 539.23 105.78 538.13 105.78H508.05C495.7 105.78 489.53 110.36 489.53 119.53C489.53 124.05 491.21 127.57 494.57 130.07C497.93 132.58 502.61 133.83 508.6 133.83H508.61Z" fill="#30B746"/>
<path d="M593.06 150.89V72.21C593.06 71.11 592.16 70.21 591.06 70.21H581.49C580.39 70.21 579.49 69.31 579.49 68.21V44.89C579.49 43.79 580.39 42.89 581.49 42.89H605.54C606.64 42.89 607.54 43.79 607.54 44.89V58.49C607.54 59.59 608.44 60.49 609.54 60.49H614.19C614.85 60.49 615.45 60.16 615.83 59.62C619.89 53.8 625.01 49.27 631.19 46C637.67 42.58 645.61 40.87 655.02 40.87C670.05 40.87 681.69 45.03 689.94 53.34C698.19 61.65 702.32 72.71 702.32 86.52V150.89C702.32 151.99 701.42 152.89 700.32 152.89H677C675.9 152.89 675 151.99 675 150.89V91.6599C675 82.9799 672.71 76.38 668.12 71.86C663.54 67.34 656.72 65.08 647.68 65.08C638.64 65.08 632.13 67.34 627.42 71.86C622.71 76.38 620.36 82.9799 620.36 91.6599V150.89C620.36 151.99 619.46 152.89 618.36 152.89H595.04C593.94 152.89 593.04 151.99 593.04 150.89H593.06Z" fill="#30B746"/>
<path d="M768.97 155.09C757.6 155.09 747.64 152.74 739.09 148.03C730.53 143.33 723.87 136.7 719.11 128.14C714.34 119.59 711.96 109.5 711.96 97.89C711.96 86.28 714.31 76.2 719.02 67.64C723.72 59.09 730.35 52.46 738.91 47.75C747.46 43.05 757.49 40.6899 768.98 40.6899C783.16 40.6899 794.89 44.2699 804.18 51.4199C812.86 58.0999 818.55 67.21 821.25 78.74C821.55 80 820.59 81.21 819.3 81.21H795.87C795.03 81.21 794.29 80.67 793.99 79.89C792.12 75.04 789.23 71.33 785.3 68.75C781.02 65.94 775.58 64.5299 768.98 64.5299C759.93 64.5299 752.72 67.43 747.35 73.24C741.97 79.05 739.28 87.2699 739.28 97.8999C739.28 108.53 741.97 116.75 747.35 122.56C752.73 128.37 759.94 131.27 768.98 131.27C782.61 131.27 791.16 125.62 794.62 114.32C794.87 113.49 795.65 112.94 796.52 112.94H820.08C821.36 112.94 822.3 114.12 822.04 115.38C819.46 127.54 813.81 137.08 805.09 144.02C795.8 151.42 783.76 155.11 768.97 155.11V155.09Z" fill="#30B746"/>
<path d="M882.43 155.09C870.57 155.09 860.31 152.74 851.63 148.03C842.95 143.33 836.26 136.66 831.55 128.05C826.84 119.43 824.49 109.26 824.49 97.5299C824.49 85.7999 826.81 75.6799 831.46 67.1899C836.1 58.6999 842.7 52.1599 851.26 47.5699C859.81 42.9899 869.84 40.6899 881.33 40.6899C892.82 40.6899 902.23 42.86 910.3 47.2C918.37 51.54 924.6 57.7699 929 65.8999C933.4 74.0299 935.6 83.6499 935.6 94.7799V102.31C935.6 103.41 934.7 104.31 933.6 104.31H853.18C851.95 104.31 851.01 105.41 851.2 106.63C852.44 114.8 855.55 121.14 860.53 125.67C865.97 130.62 873.21 133.09 882.25 133.09C888.97 133.09 894.44 131.84 898.66 129.33C902.53 127.03 905.34 123.69 907.1 119.28C907.4 118.53 908.15 118.05 908.96 118.05H932.49C933.81 118.05 934.77 119.32 934.42 120.59C931.59 130.99 925.9 139.22 917.35 145.27C908.12 151.81 896.48 155.08 882.43 155.08V155.09ZM854.05 85.7999H906.99C908.26 85.7999 909.21 84.63 908.96 83.39C907.62 76.99 904.83 72.02 900.58 68.48C895.81 64.51 889.4 62.52 881.33 62.52C873.26 62.52 866.85 64.5399 861.71 68.5699C857.18 72.1299 853.99 77.02 852.12 83.24C851.74 84.52 852.71 85.8099 854.05 85.8099V85.7999Z" fill="#30B746"/>
<path d="M960.34 30.7999C956.06 30.7999 952.42 29.2999 949.43 26.3099C946.43 23.3199 944.94 19.6799 944.94 15.3999C944.94 11.1199 946.44 7.48999 949.43 4.48999C952.42 1.48999 956.06 0 960.34 0C964.62 0 968.25 1.49999 971.25 4.48999C974.24 7.48999 975.74 11.1199 975.74 15.3999C975.74 19.6799 974.24 23.3199 971.25 26.3099C968.25 29.3099 964.62 30.7999 960.34 30.7999ZM946.78 150.89V44.89C946.78 43.79 947.68 42.89 948.78 42.89H972.1C973.2 42.89 974.1 43.79 974.1 44.89V150.89C974.1 151.99 973.2 152.89 972.1 152.89H948.78C947.68 152.89 946.78 151.99 946.78 150.89Z" fill="#30B746"/>
<path d="M997.94 150.89V72.21C997.94 71.11 997.04 70.21 995.94 70.21H986.37C985.27 70.21 984.37 69.31 984.37 68.21V44.89C984.37 43.79 985.27 42.89 986.37 42.89H1010.24C1011.34 42.89 1012.24 43.79 1012.24 44.89V62.1599C1012.24 63.2599 1013.14 64.1599 1014.24 64.1599H1018.64C1019.43 64.1599 1020.14 63.68 1020.47 62.96C1023.53 56.22 1028.06 51.06 1034.07 47.48C1040.42 43.69 1047.7 41.7999 1055.89 41.7999H1063.06C1064.16 41.7999 1065.06 42.6999 1065.06 43.7999V63.27C1065.06 64.37 1064.16 65.27 1063.06 65.27H1054.61C1044.71 65.27 1037.28 68.14 1032.34 73.89C1027.39 79.64 1024.91 87.2699 1024.91 96.8099V150.91C1024.91 152.01 1024.01 152.91 1022.91 152.91H999.96C998.86 152.91 997.96 152.01 997.96 150.91L997.94 150.89Z" fill="#30B746"/>
<path d="M1123.45 155.09C1111.72 155.09 1101.48 152.74 1092.74 148.03C1084 143.33 1077.22 136.66 1072.39 128.05C1067.56 119.43 1065.15 109.32 1065.15 97.71C1065.15 86.1 1067.56 76.02 1072.39 67.46C1077.22 58.91 1084.03 52.3099 1092.83 47.6599C1101.63 43.0199 1111.9 40.6899 1123.63 40.6899C1135.36 40.6899 1145.91 43.0099 1154.52 47.6599C1163.14 52.3099 1169.83 58.91 1174.6 67.46C1179.37 76.02 1181.75 86.16 1181.75 97.89C1181.75 109.62 1179.37 119.62 1174.6 128.23C1169.83 136.85 1163.11 143.48 1154.43 148.12C1145.75 152.77 1135.42 155.09 1123.45 155.09ZM1123.64 131.26C1133.42 131.26 1140.99 128.3 1146.37 122.37C1151.75 116.44 1154.44 108.28 1154.44 97.89C1154.44 87.5 1151.75 79.1899 1146.37 73.3199C1140.99 67.4499 1133.41 64.52 1123.64 64.52C1113.87 64.52 1106.07 67.4499 1100.63 73.3199C1095.19 79.1899 1092.47 87.32 1092.47 97.7C1092.47 108.08 1095.19 116.43 1100.63 122.36C1106.07 128.29 1113.74 131.25 1123.64 131.25V131.26Z" fill="#30B746"/>
<path d="M53.39 54.63C52.07 54.63 50.7801 55.01 49.6801 55.72L3.12 85.8199C1.17 87.0799 0 89.2399 0 91.5599V134.32C0 138.09 3.06009 141.16 6.84009 141.16H17.8601L54.6101 54.63H53.39Z" fill="#30B746"/>
<path d="M130.56 93.1699L110.84 47.0399C109.76 44.5199 107.29 42.89 104.55 42.89H64.1001C61.3601 42.89 58.8801 44.5299 57.8101 47.0499L54.5901 54.62H89.02C92.79 54.62 95.8601 57.68 95.8601 61.46V134.32C95.8601 138.09 92.8 141.16 89.02 141.16H17.8401L16.89 143.39C14.98 147.9 18.2801 152.9 23.1801 152.9H102.94C105.68 152.9 108.16 151.26 109.23 148.74L130.54 98.5399C131.27 96.8299 131.26 94.8899 130.54 93.1799L130.56 93.1699Z" fill="#30B746"/>
</svg>
